<svg xmlns="http://www.w3.org/2000/svg" width="680" height="306" viewBox="0 0 680 306" role="img" aria-label="Exposure-normalized hazard rate per 1000 by segment, Davis">
<title>Hazard rate per 1000 by segment — Davis</title>
<text x="16" y="28" font-family="sans-serif" font-size="16" font-weight="bold">Hazard rate per 1000 bike trips (synthetic) — Davis</text>
<text x="202" y="72" font-family="sans-serif" font-size="12" text-anchor="end">★ 5th St (C–D)</text>
<rect x="210" y="60" width="400.0" height="16" fill="#8a1c1c" stroke="#000" stroke-width="1" stroke-dasharray="3 2"/>
<line x1="356.1" y1="68" x2="1080.7" y2="68" stroke="#222" stroke-width="1"/><line x1="356.1" y1="65" x2="356.1" y2="71" stroke="#222"/><line x1="1080.7" y1="65" x2="1080.7" y2="71" stroke="#222"/>
<text x="672" y="72" font-family="sans-serif" font-size="12" text-anchor="end">20.0</text>
<text x="202" y="98" font-family="sans-serif" font-size="12" text-anchor="end">C St (1st–2nd)</text>
<rect x="210" y="86" width="300.0" height="16" fill="#0b4f9c"/>
<line x1="319.5" y1="94" x2="863.0" y2="94" stroke="#222" stroke-width="1"/><line x1="319.5" y1="91" x2="319.5" y2="97" stroke="#222"/><line x1="863.0" y1="91" x2="863.0" y2="97" stroke="#222"/>
<text x="672" y="98" font-family="sans-serif" font-size="12" text-anchor="end">15.0</text>
<text x="202" y="124" font-family="sans-serif" font-size="12" text-anchor="end">5th St (B–C)</text>
<rect x="210" y="112" width="300.0" height="16" fill="#0b4f9c"/>
<line x1="319.5" y1="120" x2="863.0" y2="120" stroke="#222" stroke-width="1"/><line x1="319.5" y1="117" x2="319.5" y2="123" stroke="#222"/><line x1="863.0" y1="117" x2="863.0" y2="123" stroke="#222"/>
<text x="672" y="124" font-family="sans-serif" font-size="12" text-anchor="end">15.0</text>
<text x="202" y="150" font-family="sans-serif" font-size="12" text-anchor="end">5th St (D–E)</text>
<rect x="210" y="138" width="300.0" height="16" fill="#0b4f9c"/>
<line x1="319.5" y1="146" x2="863.0" y2="146" stroke="#222" stroke-width="1"/><line x1="319.5" y1="143" x2="319.5" y2="149" stroke="#222"/><line x1="863.0" y1="143" x2="863.0" y2="149" stroke="#222"/>
<text x="672" y="150" font-family="sans-serif" font-size="12" text-anchor="end">15.0</text>
<text x="202" y="176" font-family="sans-serif" font-size="12" text-anchor="end">Russell Blvd (A–B)</text>
<rect x="210" y="164" width="300.0" height="16" fill="#0b4f9c"/>
<line x1="319.5" y1="172" x2="863.0" y2="172" stroke="#222" stroke-width="1"/><line x1="319.5" y1="169" x2="319.5" y2="175" stroke="#222"/><line x1="863.0" y1="169" x2="863.0" y2="175" stroke="#222"/>
<text x="672" y="176" font-family="sans-serif" font-size="12" text-anchor="end">15.0</text>
<text x="202" y="202" font-family="sans-serif" font-size="12" text-anchor="end">B St (1st–2nd)</text>
<rect x="210" y="190" width="53.3" height="16" fill="#0b4f9c"/>
<line x1="224.3" y1="198" x2="346.5" y2="198" stroke="#222" stroke-width="1"/><line x1="224.3" y1="195" x2="224.3" y2="201" stroke="#222"/><line x1="346.5" y1="195" x2="346.5" y2="201" stroke="#222"/>
<text x="672" y="202" font-family="sans-serif" font-size="12" text-anchor="end">2.7</text>
<text x="202" y="228" font-family="sans-serif" font-size="12" text-anchor="end">3rd St (B–C)</text>
<rect x="210" y="216" width="50.0" height="16" fill="#0b4f9c"/>
<line x1="240.5" y1="224" x2="287.2" y2="224" stroke="#222" stroke-width="1"/><line x1="240.5" y1="221" x2="240.5" y2="227" stroke="#222"/><line x1="287.2" y1="221" x2="287.2" y2="227" stroke="#222"/>
<text x="672" y="228" font-family="sans-serif" font-size="12" text-anchor="end">2.5</text>
<text x="202" y="254" font-family="sans-serif" font-size="12" text-anchor="end">8th St (B–C)</text>
<rect x="210" y="242" width="0.0" height="16" fill="#0b4f9c"/>
<line x1="210.0" y1="250" x2="258.9" y2="250" stroke="#222" stroke-width="1"/><line x1="210.0" y1="247" x2="210.0" y2="253" stroke="#222"/><line x1="258.9" y1="247" x2="258.9" y2="253" stroke="#222"/>
<text x="672" y="254" font-family="sans-serif" font-size="12" text-anchor="end">0.0</text>
<text x="202" y="280" font-family="sans-serif" font-size="12" text-anchor="end">Covell Blvd (F–G)</text>
<rect x="210" y="268" width="0.0" height="16" fill="#0b4f9c"/>
<line x1="210.0" y1="276" x2="258.9" y2="276" stroke="#222" stroke-width="1"/><line x1="210.0" y1="273" x2="210.0" y2="279" stroke="#222"/><line x1="258.9" y1="273" x2="258.9" y2="279" stroke="#222"/>
<text x="672" y="280" font-family="sans-serif" font-size="12" text-anchor="end">0.0</text>
</svg>
